<?xml version="1.0" standalone="no"?>
<!DOCTYPE svg PUBLIC "-//W3C//DTD SVG 1.1//EN" "http://www.w3.org/Graphics/SVG/1.1/DTD/svg11.dtd">
<svg t="1731332632667" class="icon" viewBox="0 0 1024 1024" version="1.1"
    xmlns="http://www.w3.org/2000/svg" p-id="4298" xmlns:xlink="http://www.w3.org/1999/xlink"
    width="200" height="200">
    <path
        d="M695.253333 890.88a51.498667 51.498667 0 0 1-59.093333-10.154667l-327.936-300.714666-142.848 108.970666a34.474667 34.474667 0 0 1-44.202667-1.962666l-45.824-41.898667a34.986667 34.986667 0 0 1-0.042666-51.541333l123.861333-113.578667-123.861333-113.578667a34.986667 34.986667 0 0 1 0-51.541333l45.866666-41.898667a34.474667 34.474667 0 0 1 44.245334-1.962666l142.805333 108.970666 327.936-300.714666a51.584 51.584 0 0 1 59.093333-10.112l171.306667 82.858666c18.005333 8.704 29.44 27.008 29.44 47.104V512h-207.872V290.133333l-248.832 189.866667 248.832 189.866667V512H896v248.874667c0 20.096-11.434667 38.4-29.44 47.146666l-171.306667 82.816z"
        p-id="4299"></path>
</svg>